<?xml version="1.0"?>
<svg xmlns="http://www.w3.org/2000/svg" xmlns:xlink="http://www.w3.org/1999/xlink" version="1.1" viewBox="0 0 26 26" enable-background="new 0 0 26 26" width="512px" height="512px"><g><path d="m.3,14c-0.2-0.2-0.3-0.5-0.3-0.7s0.1-0.5 0.3-0.7l1.4-1.4c0.4-0.4 1-0.4 1.4,0l.1,.1 5.5,5.9c0.2,0.2 0.5,0.2 0.7,0l13.4-13.9h0.1v-8.88178e-16c0.4-0.4 1-0.4 1.4,0l1.4,1.4c0.4,0.4 0.4,1 0,1.4l0,0-16,16.6c-0.2,0.2-0.4,0.3-0.7,0.3-0.3,0-0.5-0.1-0.7-0.3l-7.8-8.4-.2-.3z" data-original="#000000" class="active-path" data-old_color="#000000" fill="#F0532B"/><style id="stylish-6" class="stylish active-path" type="text/css" style="">.video-box .icon-premium-star {
    width: 95%;
    height: 80%;
    line-height: 170px;
}</style><style id="stylish-7" class="stylish active-path" type="text/css">.wall_text_name_explain_promoted_post:before {
	width: 100%;
    height: 56px;
    content: "";
    position: absolute;
    top: 12px;
    left: 0;
    background: rgba(255, 0, 0, 0.4);
    z-index: 1;
}
.post_image,
h5.copy_post_author, 
h5.post_author {
    z-index: 2;
    position: relative;
}
.post_date {
    position: unset;
}</style><style id="stylish-8" class="stylish active-path" type="text/css">.autoba-table .cost p.big {
display: none;
}
.autoba-table .cost p.small {
font-weight: bold;
font-size: 20px;
    line-height: 24px;
    height: 24px;
    overflow: hidden;
}</style></g> </svg>
